# xmcd
#
# Track frame offsets: 
#        150
#        12323
#        26556
#        39367
#        53575
#        65890
#        77862
#        90113
#        103250
#        115206
#        128982
#        142672
#        155609
#        168276
#        182424
#        194345
#        206186
#        220299
#        234094
#        246622
#        260614
#        274000
#        287115
#        300109
#        312823
#        325309
#
# Disc length: 4511 seconds
#
# Revision: 0
# Processed by: cddbd v1.5.2PL0 Copyright (c) Steve Scherf et al.
# Submitted via: ExactAudioCopy v1.0b3
#
DISCID=6b119d1a
DTITLE=T-Bone Walker - The Ultimate Collection 1929-57 - Disc 2
DYEAR=2014
DGENRE=Blues
TTITLE0=T-Bone Jumps Again
TTITLE1=She Had To Let Me Down
TTITLE2=Long Skirt Baby Blues
TTITLE3=Goodbye Blues
TTITLE4=Midnight Blues
TTITLE5=She's My Old Time Used to Be
TTITLE6=Too Much Trouble Blues
TTITLE7=Long Lost Lover Blues
TTITLE8=Dream Girl Blues
TTITLE9=Triflin' Woman Blues
TTITLE10=I'm Waiting For Your Call
TTITLE11=On Your Way Blues
TTITLE12=Hypin' Woman Blues
TTITLE13=So Blue Blues
TTITLE14=Lonesome Woman Blues
TTITLE15=That's Better For Me
TTITLE16=First Love Blues
TTITLE17=Natural Blues
TTITLE18=Inspiration Blues
TTITLE19=Description Blues
TTITLE20=T-Bone Shuffle
TTITLE21=Vacation Blues
TTITLE22=That Old Feeling Is Gone
TTITLE23=Prison Blues
TTITLE24=Time Seems So Long
TTITLE25=Home Town Blues
EXTD=
EXTT0=
EXTT1=
EXTT2=
EXTT3=
EXTT4=
EXTT5=
EXTT6=
EXTT7=
EXTT8=
EXTT9=
EXTT10=
EXTT11=
EXTT12=
EXTT13=
EXTT14=
EXTT15=
EXTT16=
EXTT17=
EXTT18=
EXTT19=
EXTT20=
EXTT21=
EXTT22=
EXTT23=
EXTT24=
EXTT25=
PLAYORDER=
